<?xml version="1.0" encoding="iso-8859-1"?>
<!-- Generator: Adobe Illustrator 19.1.1, SVG Export Plug-In . SVG Version: 6.00 Build 0)  -->
<svg xmlns="http://www.w3.org/2000/svg" xmlns:xlink="http://www.w3.org/1999/xlink" version="1.1" id="Layer_1" x="0px" y="0px" viewBox="0 0 40 40" style="enable-background:new 0 0 40 40;" xml:space="preserve" width="16px" height="16px">
<g>
	<path style="fill:#F7A3A3;" d="M20,37.5c-5.477,0-9.787-1.558-12.81-4.629C2.443,28.048,2.499,21.078,2.5,21.008V15.36l2.947-0.982   l0.047-0.301C5.575,13.563,7.617,1.5,20,1.5s14.425,12.063,14.506,12.577l0.047,0.301L37.5,15.36V21   c0.001,0.078,0.047,7.064-4.697,11.878C29.78,35.945,25.473,37.5,20,37.5z"/>
	<path style="fill:#C74343;" d="M20,2c11.941,0,13.933,11.659,14.012,12.154l0.094,0.602l0.578,0.193L37,15.721l0,5.294   c0.001,0.068,0.036,6.863-4.56,11.519C29.515,35.497,25.329,37,20,37s-9.515-1.503-12.44-4.466C2.964,27.877,2.999,21.083,3,21   v-5.279l2.316-0.772l0.578-0.193l0.094-0.602C6.065,13.658,8.021,2,20,2 M20,1C7.027,1,5,14,5,14l-3,1v6c0,0-0.272,17,18,17   s18-17,18-17v-6l-3-1C35,14,32.973,1,20,1L20,1z"/>
</g>
<path style="fill:#C74343;" d="M20,29c-1.654,0-3,1.346-3,3v3c0,1.654,1.346,3,3,3s3-1.346,3-3v-3C23,30.346,21.654,29,20,29L20,29z  "/>
<g>
	<path style="fill:#F78F8F;" d="M35.5,20.5v-7h3v7H35.5z M1.5,20.5v-7h3v7H1.5z"/>
	<path style="fill:#C74343;" d="M38,14v6h-2v-6H38 M4,14v6H2v-6H4 M39,13h-4v8h4V13L39,13z M5,13H1v8h4V13L5,13z"/>
</g>
<g>
	<rect x="2.5" y="21.5" style="fill:#8BB7F0;" width="2" height="5"/>
	<path style="fill:#4E7AB5;" d="M4,22v4H3v-4H4 M5,21H2v6h3V21L5,21z"/>
</g>
<g>
	<rect x="35.5" y="21.5" style="fill:#8BB7F0;" width="2" height="5"/>
	<path style="fill:#4E7AB5;" d="M37,22v4h-1v-4H37 M38,21h-3v6h3V21L38,21z"/>
</g>
<g>
	<polygon style="fill:#839CB2;" points="24.309,27.5 21.309,21.5 18.691,21.5 15.691,27.5 12.338,27.5 10.338,22.5 8.732,22.5    6.732,25.5 5.5,25.5 5.5,22.5 6.338,22.5 8.338,17.5 10.662,17.5 12.662,22.5 15.309,22.5 18.309,16.5 21.691,16.5 24.691,22.5    27.338,22.5 29.338,17.5 31.662,17.5 33.662,22.5 34.5,22.5 34.5,25.5 33.268,25.5 31.268,22.5 29.662,22.5 27.662,27.5  "/>
	<g>
		<path style="fill:#66798F;" d="M21.382,17l2.724,5.447L24.382,23H25h2h0.677l0.251-0.629L29.677,18h1.646l1.749,4.371L33.323,23    H34v2h-0.465l-1.703-2.555L31.535,22H31h-1h-0.677l-0.251,0.629L27.323,27h-2.705l-2.724-5.447L21.618,21H21h-2h-0.618    l-0.276,0.553L15.382,27h-2.705l-1.749-4.371L10.677,22H10H9H8.465l-0.297,0.445L6.465,25H6v-2h0.677l0.251-0.629L8.677,18h1.646    l1.749,4.371L12.323,23H13h2h0.618l0.276-0.553L18.618,17H21.382 M22,16h-4l-3,6h-2l-2-5H8l-2,5H5v4h2l2-3h1l2,5h4l3-6h2l3,6h4    l2-5h1l2,3h2v-4h-1l-2-5h-3l-2,5h-2L22,16L22,16z"/>
	</g>
</g>
<g>
	<path style="fill:#FFFFFF;" d="M23.207,11.5l-2-2h3l2.856-2.856L29.5,8.268v1.525L27.793,11.5H23.207z M12.118,11.5L10.5,10.691   V8.268l2.437-1.624L15.793,9.5h3l-2,2H12.118z"/>
	<path style="fill:#66798F;" d="M27.127,7.287L29,8.535v1.051L27.586,11h-4.172l-1-1H24h0.414l0.293-0.293L27.127,7.287    M12.873,7.287l2.42,2.42L15.586,10H16h1.586l-1,1h-4.35L11,10.382V8.535L12.873,7.287 M27,6l-3,3h-8l-3-3l-3,2v3l2,1h5l2-2h2l2,2   h5l2-2V8L27,6L27,6z"/>
</g>
<g>
	<path style="fill:#FFFFFF;" d="M23.207,11.5l-2-2h3l2.856-2.856L29.5,8.268v1.525L27.793,11.5H23.207z M12.118,11.5L10.5,10.691   V8.268l2.437-1.624L15.793,9.5h3l-2,2H12.118z"/>
	<path style="fill:#66798F;" d="M27.127,7.287L29,8.535v1.051L27.586,11h-4.172l-1-1H24h0.414l0.293-0.293L27.127,7.287    M12.873,7.287l2.42,2.42L15.586,10H16h1.586l-1,1h-4.35L11,10.382V8.535L12.873,7.287 M27,6l-3,3h-8l-3-3l-3,2v3l2,1h5l2-2h2l2,2   h5l2-2V8L27,6L27,6z"/>
</g>
<g>
	<circle style="fill:#C2E8FF;" cx="20" cy="29" r="1.5"/>
	<path style="fill:#C74343;" d="M20,28c0.552,0,1,0.448,1,1s-0.448,1-1,1s-1-0.448-1-1S19.448,28,20,28 M20,27c-1.103,0-2,0.897-2,2   s0.897,2,2,2s2-0.897,2-2S21.103,27,20,27L20,27z"/>
</g>
<g>
	<path style="fill:#C2E8FF;" d="M20,31c0.551,0,1,0.449,1,1v3c0,0.551-0.449,1-1,1s-1-0.449-1-1v-3C19,31.449,19.449,31,20,31    M20,30c-1.103,0-2,0.897-2,2v3c0,1.103,0.897,2,2,2s2-0.897,2-2v-3C22,30.897,21.103,30,20,30L20,30z"/>
</g>
<rect x="3" y="22" style="fill:#8BB7F0;" width="2" height="4"/>
<rect x="35" y="22" style="fill:#8BB7F0;" width="2" height="4"/>
<path style="fill:#F5C276;" d="M26,10c0.552,0,1-0.448,1-1c0-0.43-0.274-0.789-0.655-0.93L25.07,9.345C25.211,9.726,25.57,10,26,10z  "/>
<path style="fill:#F5C276;" d="M14,10c-0.552,0-1-0.448-1-1c0-0.43,0.274-0.789,0.655-0.93l1.275,1.275C14.789,9.726,14.43,10,14,10  z"/>
</svg>
